<svg width="1782" height="1694" xmlns="http://www.w3.org/2000/svg">
    <path fill="#1CCE93" d="M166.188 1566H272.81l20.186-122.666h46.323c101.445 0 163.296-46.323 177.011-129.394 14.234-85.918-30.795-133.535-129.911-133.535H229.85L166.188 1566Zm140.523-205.996 15.268-92.128h41.924c37.266 0 52.534 14.75 47.358 46.064-5.176 31.313-25.361 46.064-62.627 46.064h-41.923ZM614.255 1414.867c4.658-27.949 24.326-45.029 49.429-45.029 26.137 0 39.594 17.08 34.936 45.03L673.518 1566h103.515l28.467-172.353c10.352-62.11-23.032-107.139-83.848-107.139-41.664 0-76.342 21.739-95.234 57.969h-.517l27.173-164.072H549.558L485.638 1566h103.515l25.102-151.133ZM943.797 1572.21c79.965 0 130.43-39.335 150.356-99.374h-94.717c-4.917 16.304-18.632 27.173-46.84 27.173-23.033 0-41.924-7.505-41.924-38.3v-2.589c119.043-4.4 193.056-24.067 193.056-90.058 0-56.157-53.828-82.554-119.56-82.554-89.541 0-156.308 53.31-171.06 142.852-15.527 93.681 37.784 142.85 130.689 142.85Zm-24.844-171.058c7.764-32.349 23.809-41.665 54.346-41.665 23.29 0 36.489 7.763 36.489 19.15 0 12.422-13.975 20.186-90.835 22.515ZM1089.41 1566h103.515l21.739-130.947c5.952-36.49 30.278-59.521 62.626-59.521h37.784l13.715-82.813h-25.878c-37.525 0-59.522 12.94-75.567 49.688h-.517l8.28-49.688h-100.409L1089.41 1566ZM1434.722 1572.21c89.023 0 158.12-55.38 172.612-142.85 14.492-87.212-36.23-142.852-125.254-142.852-88.765 0-158.379 55.64-172.87 142.852-14.493 87.729 36.747 142.85 125.512 142.85Zm13.457-80.741c-24.585 0-41.148-20.962-34.42-62.11 6.988-41.147 30.279-62.109 54.864-62.109 24.585 0 41.147 20.962 34.16 62.11-6.728 41.147-30.02 62.109-54.604 62.109Z"/>
    <path fill="#1CCE93" d="M890.5 36c280.837 0 508.5 227.663 508.5 508.5S1171.337 1053 890.5 1053c-59.309 0-116.246-10.154-169.168-28.817l36.24-216.01h325.138c168.943 0 204.965-515.42 41.749-515.42H643.75l-103.07 620.8C442.952 820.887 382 689.812 382 544.5 382 263.663 609.663 36 890.5 36Z"/>
</svg>
