<?xml version="1.0" encoding="UTF-8"?>
<svg width="1782px" height="1694px" viewBox="0 0 1782 1694" version="1.1" xmlns="http://www.w3.org/2000/svg" xmlns:xlink="http://www.w3.org/1999/xlink">
    <title>title green</title>
    <g id="title-green" stroke="none" stroke-width="1" fill="none" fill-rule="evenodd">
        <g id="Phero" transform="translate(172.752840, 1180.545822)" fill="#1CCE93" fill-rule="nonzero">
            <path d="M0,385.454178 L104.644787,385.454178 L123.842211,271.022469 L181.434486,271.022469 C270.269629,271.022469 337.272406,219.829336 350.823529,136.264075 C364.374653,54.2044938 316.19288,0 230.369098,0 L63.9914162,0 L0,385.454178 Z M137.393335,189.715728 L155.085079,83.5652612 L191.974249,83.5652612 C228.863418,83.5652612 246.931583,103.139106 241.661701,136.264075 C236.39182,169.389043 211.548094,189.715728 173.906084,189.715728 L137.393335,189.715728 Z" id="Shape"></path>
            <path d="M457.065214,222.840697 C461.582255,194.232769 481.1561,176.917445 506.752666,176.917445 C533.102073,176.917445 545.147516,194.232769 540.630475,222.840697 L513.528228,385.454178 L617.420175,385.454178 L648.286622,201.008331 C658.826385,137.769755 626.454257,92.5993435 565.474201,92.5993435 C522.56231,92.5993435 487.178821,114.431709 468.357817,151.320878 L465.346456,151.320878 L490.190182,0 L390.062437,0 L326.071021,385.454178 L429.962967,385.454178 L457.065214,222.840697 Z" id="Path"></path>
            <path d="M781.630549,390.724059 C862.184449,390.724059 919.400304,352.329209 939.726989,292.101994 L844.869125,292.101994 C835.835043,308.664478 817.014038,317.698561 795.934513,317.698561 C765.068065,317.698561 750.764101,297.371875 755.281142,269.516788 L756.222193,264.999747 L944.24403,264.999747 L948.008231,240.908861 C963.065035,149.062358 916.388943,92.5993435 829.059481,92.5993435 C739.471498,92.5993435 672.468721,152.073719 657.411917,241.661701 C641.602273,335.013885 689.031205,390.724059 781.630549,390.724059 Z M766.950165,207.783893 C772.784677,182.375536 794.993462,165.624842 820.025399,165.624842 C845.621965,165.624842 861.431609,182.940166 857.667408,207.783893 L766.950165,207.783893 Z" id="Shape"></path>
            <path d="M942.076703,385.454178 L1045.96865,385.454178 L1070.81238,234.88614 C1076.8351,201.761171 1103.1845,179.928806 1133.29811,179.928806 C1144.59071,179.928806 1161.1532,181.434486 1170.94012,185.198687 L1185.99693,96.3635445 C1177.71568,94.1050239 1169.43444,92.5993435 1160.40036,92.5993435 C1129.53391,92.5993435 1102.43166,110.667508 1085.11634,151.320878 L1082.10498,151.320878 L1091.13906,96.3635445 L990.258475,96.3635445 L942.076703,385.454178 Z" id="Path"></path>
            <path d="M1269.65328,390.724059 C1363.7583,390.724059 1429.44361,330.496844 1444.3122,241.661701 C1458.80437,152.826559 1413.06933,92.5993435 1319.34073,92.5993435 C1224.85928,92.5993435 1159.17398,152.826559 1144.6818,241.661701 C1129.81321,330.496844 1175.54825,390.724059 1269.65328,390.724059 Z M1282.45156,313.93436 C1255.1611,313.93436 1243.30387,286.267483 1250.83227,240.908861 C1258.17246,195.55024 1279.4402,167.883363 1306.54244,167.883363 C1333.64469,167.883363 1345.50192,195.55024 1338.16173,240.908861 C1330.63333,286.267483 1309.3656,313.93436 1282.45156,313.93436 Z" id="Shape"></path>
        </g>
        <g id="Group" transform="translate(382.000000, 36.000000)" fill="#1CCE93">
            <path d="M508.5,0 C789.336795,0 1017,227.663205 1017,508.5 C1017,789.336795 789.336795,1017 508.5,1017 C449.191255,1017 392.254022,1006.84635 339.331779,988.18252 L375.572442,772.172327 L700.71021,772.172327 C869.653064,772.172327 905.674659,256.75345 742.458681,256.75345 L261.750773,256.75345 L158.681755,877.553651 C60.9510588,784.885931 0,653.810907 0,508.5 C0,227.663205 227.663205,0 508.5,0 Z" id="Combined-Shape"></path>
        </g>
    </g>
</svg>